<svg xmlns="http://www.w3.org/2000/svg" width="902.83167pt" height="224.99994pt" fill-rule="evenodd" viewBox="0 0 902.83166 224.99993"><path d="M85.746 193.188c1.014-.5 2.048-.986 3.056-1.489 3.653-.238 5.79-1.772 8.951-2.947.907-.33 1.852-.637 2.786-.957.166-.007.298-.019.465-.019-1.008 7.312-6.195 14.51-3.079 21.35.635.968 1.286 1.955 1.907 2.936l3.04 1.098c1.14.516 2 1.624 3.174 2.08.735-.049.775.428 1.251.73 2.085 1.377 3.693.544 5.806-1.191.019-.148.037-.291.07-.458 1.864-.119 2.716.58 4.71-.307.193-1.457-.338-2.394.09-4.036-.706.042 1.558-1.304 2.13-1.934.851-.042-.014-1.614-.154-2.222-.608.037-.486.185-.407-.431.19-.08.407-.148.627-.225 1.47-2.537 2.936-5.063 4.404-7.594a819.178 819.178 0 0 1 4.904-5.934c.44-1.002.506-1.724.273-2.597 2.899-.185 3.82-6.867 3.536-8.753 1.048-.07 5.952-5.185 7.484-6.2 1.55-.705 3.116-1.4 4.692-2.102.061-.05.125-.068.196-.121.749-.044.524-1.183.72-1.842.105-.734-.21-.437-.884-.395.03-.15.042-.3.072-.445.896.057 1.801.145 2.708.225 1.99-.713 3.965-1.415 5.944-2.136.085-.597 1.05-1.243.738-1.566 1.376-.114 2.764-.214 4.145-.32 2.532-.568 9.687-3.97 11.594-5.926.315-.012.635-.03.929-.052-.072.623-.19.468.423.424.098-.708.997-.765 1.516-.997.097-.595-.059-.444.552-.478a5.022 5.022 0 0 0-.066.452c1.043-.08.537 9.6 2.117 11.516.156-.01.32-.023.481-.028-.238.599-.481 1.221-.72 1.847-.098.007-.02 1.774-.38 2.708.158-.006.312-.016.473-.021-.217 1.531 4.513-.553 5.24-.794.027-.167.04-.296.066-.46-.016.315-.026.666-.026.987-.288 1.417-1.204 2.475-2.349 3.39-5.378 4.294-2.95 10.185-2.31 14.835.093 1.553.17 3.124.257 4.72.413.951.818 1.917 1.217 2.875-.14.984-.294 1.986-.426 2.997a13.749 13.749 0 0 0 .952 6.24c-.02.15-.047.299-.063.45.49-.043 1.529-2.87 3.328-3.805-.048.112-.088.21-.13.318-.558 1.172-1.113 2.362-1.674 3.544-.86 3.087-.41 8.489 1.724 10.047-.31 2.286-.759 4.09 1.67 4.825.068-.452.13-.902.195-1.35.151-1.14 1.217-2.3 1.749-3.303.52-1.37 1.068-2.727 1.6-4.1 1.016-.063-.748-1.632-1.09-2.17-.658.043-.127-1.496-.161-2.226l1.891-.122c.426-3.103-.296-5.362-1.756-7.51-.67.04.188-.315.532-.481.018-.156.031-.302.063-.466.667-.034.143.106.41.44-.021.129-.034.285-.069.449.6-.045.54-.037.71-.574 1.457-4.172 3.015-8.3 4.83-12.345.753-.048.449-.408.422-.969.199-1.491.41-2.975.612-4.465.333-3.618.32-7.872 1.75-11.342-.573.042-.796-3.854-1.655-4.81.095-.7.621-.974 1.137-1.426.183-1.359.378-2.717.558-4.071.151-1.018 1.434-2.129 2.254-2.842.206-1.508-.071-2.795.161-4.494-.775.049-.93-.328-1.277-.804-.627.031-.498.178-.41-.424.936-.064 1.799-1.358 2.119-2.092.346-1.325.698-2.637 1.031-3.947 2.77-5.711 6.24-6.65 11.41-9.571a550.05 550.05 0 0 1 2.277-1.63c.132-.852-1.032-.695-1.749-.775.014-.163.035-.307.061-.462 1.405-.088 8.203-6.014 9.253-7.437.368-.915.749-1.85 1.111-2.767 1.119-.44 2.333.113 3.127.37.026-.156.05-.305.063-.463 1.013-.517 2.018-1.026 3.016-1.542.098-.68.36-.468 1.005-.51.1-.73-.693-.665-1.28-.818.119-.814.878-.757 1.534-.992.016-.165.04-.294.06-.452-.42.02-.782-.015-.872-.39.362-2.666 1.933-2.894 4.079-2.508.04-.32 2.656-4.263 2.989-4.684.648-.039.756-1.315 1.174-1.865-.113.79.92.093 1.426-.1-.13.883 1.172-.954 1.595-1.447-.725.051-.801-.452-1.285-.811.029-.155.058-.295.063-.458.791-.199 1.611-.392 2.407-.596.016-.158.058-.297.066-.445 4.423-.292 6.746-3.407 10.851-4.296.138-.984.862-1.36 1.664-1.914.071-.444.135-.896.196-1.349-.326.016-.635.032-.942.058-.114.803-1.495 1.397-2.127 1.921-.569.042-1.545-.98-2.172-1.19.016-.158.043-.305.072-.452 1.756-.114 2.068-2.348 3.95-1.597.142-.015.303-.028.465-.036.063-.509-.058-.602-.352-.88.174-1.132-.18-.546-.28-1.32.1-.672-4.82 1.44-5.817 1.72.103-.724.709.387.145.056.021-.155.035-.305.061-.444 1.479-.1 2.28-2.206 3.008-3.164.082-.649-.495-.633-1.027-.747-2.904-.661-13.125 3.449-16.276 4.606-2.42.852-4.827 1.728-7.232 2.583-1.624.88-3.248 1.795-4.851 2.687-5.333 2.451-10.867 3.924-16.099 6.59.019-.156.045-.306.056-.45-.524.041-.527-.085-.868-.395.251-1.803.563-3.118-.304-4.47.264-.761.58-1.534.849-2.314.513-3.909 1.037-7.811 1.553-11.74-.791.056.325-.845.669-1.395.836-.05.17-.763-.007-1.233-1.479-3.75.391-8.32.098-12.67-.146-2.558-1.294-3.875-.024-6.714-.696.049-.524-.266-.659-.716-1.124-3.647-2.714-2.353-5.769-3.36.04-.287.087-.613.122-.9.672-.049 1.502-.736 2.01-1.03.26-1.868-2.95-3.124-4.15-3.754-.056.47-3.103.946-3.839 1.26-1.812.81-3.753 1.512-5.795 1.378-1.323-.08-2.503-.778-4.087-.41-4.272 1.04-13.515 9.782-17.329 13.24.148-.004.302-.02.468-.033-.106.783 1.09.724 1.76.783-.04.297-.08.602-.133.91-.606.035-.447-.112-.524.48-1.27.085-4.338 1.33-5.362 2.24-2.079 1.898-2.872 5.024-4.581 7.237-.987 1.264-2.992 1.587-3.627 3.24-.02.382-.02.775-.02 1.167a4.93 4.93 0 0 0-.067.452c-4.61.292-13.382 21.697-17.845 24.479-.068.302-.09.597-.137.897-.172.013-.31.015-.468.033-.201 2.981-1.99 4.221-3.236 6.673-.735 1.477-.986 2.658-1.983 3.983.793-.049.216.423-.122.896.677-.041-.442 1.095-.632 1.834-.611 2.444-2.685 4.102-3.82 6.26-2.457 4.763-5.113 8.826-6.565 14.148-2.791.183-1.693 3.363-.57 4.079-.02.136-.039.294-.065.452-3.074.199-3.415 3.425-3.571 5.61-.164.014-.312.014-.469.021.088-.68-.209-.405-.685-.256-3.991 1.37-7.422 2.452-10.774 5.49-.867.064.016.591.344.873a5.98 5.98 0 0 1-.06.46c-2.929.186-4.474.509-7.296 2.306-2.418 1.574-5.534 5.418-8.634 4.995-.175.021-.315.026-.476.042-.019.148-.037.289-.061.442-.783.048-.5.82-.664 1.4-.106.711-1.841 1.811-2.328 2.541-.738 1.143-1.902 1.844-2.772 2.926-1.54 1.984-2.931 4.227-3.354 6.677-.307 1.857 5.949 3.396 7.681 3.09zM205.28 111.95c-.016.132-.048.29-.064.44.638-.04.492-.166.405.433-.14-.157-.27-.271-.405-.433-.484.033-.296-.11.064-.44zm-42.318 9.876c.02-.02 9.454-12.492 10.549-13.8-1.043.228-.495-.813-.387-1.664.87-.177 7.4-9.916 9.666-11.861.021-.212.05-.4.077-.595.103-.033 1.764 5.283 2.814 6.381-1.484 3.996-2.954 8.031-4.43 12.035-.656 3.333-.048 6.644-1.053 9.832-1.04 3.32-5.045 7.347-8.608 8.364-1.83.553-3.235.522-4.962 1.333-3.418 2.134-6.835 4.304-10.258 6.44-4.622-2.12 6.012-12.247 6.592-16.465zM389.22 98.958c-2.598-.158-4.95 1.635-7.01 3.219l-2 1.446c.016-.007-8.645 5.082-8.645 5.082l-8.258 4.851c-4.746 2.211-8.774 3.746-12.628 4.813.016 0-2.6.953-2.6.953-.662.318-1.278.617-2.455.896l-.16.03s-.044.07-.055.102a46.534 46.534 0 0 0-.455-.315l-.433-.316c-1.339-.823-1.701-2.867-1.701-5.238 0-1.478.14-3.077.275-4.609.132-1.54.264-3.025.264-4.342 0-.643-.068-1.204-.145-1.757 1.656-.578 1.894-4.22 2.095-7.501.098-1.429.172-2.772.368-3.296.31-.81 1.224-1.571 2.026-2.238l.18-.155.066-.304s-.074-2.046-.082-2.336c1.354-1.563 3.306-8.127 3.327-8.196a4.37 4.37 0 0 0 .135-1.06c0-.423-.076-.81-.156-1.196.471-.23.646-.767.749-1.1l.106-.279a3.14 3.14 0 0 0 .06-.284c.032-.008.104-.036.104-.036l.95-.416-.252-.395c.037-.11.854-1.863 1.021-2.237.17-.026.341-.09.452-.28a.552.552 0 0 0 .104-.35c0-.127-.064-.233-.111-.344.59-.336 1.118-1.088 1.587-1.77l.608-.816 2.01-1.958c1.291-1.225 2.503-2.361 3.577-3.844.05-.116 1.002-2.58 1.002-2.58s.482-1.248.484-1.264c.01.02.675-.865.675-.865.83-1.07 1.767-2.265 1.767-3.8 0-.186-.019-.372-.042-.571-.336-2.402-2.44-3.304-4.13-4.03 0 0-.351-.15-.373-.155.03-.129.075-.452.075-.452l-.537-.002-.35-.018a14.138 14.138 0 0 1-1.285-.1c.524-.623.79-1.641.952-2.367.33-.078.574-.23.794-.457l.64-.687s-1.056-.166-1.077-.168c-.01-.029-.069-.243-.069-.243l-.174-.61-.352-.013-1.54-.087s-.552 1.529-.563 1.555c-.439-.127-.764-.373-1.069-.982l-.121-.24c-.003 0-.453-.055-.463-.055-.019-.012-.032-.033-.048-.04.01-.016.032-.042.032-.058l.074-.395s-.653-.263-.767-.307c.103-.194.235-.414.235-.414s-.56-.075-.69-.095l.032-.153c.029-.15.069-.325.069-.511 0-.188-.04-.38-.17-.545-.087-.111-.267-.124-.396-.186-.12-.48-.474-.77-.69-.9 0 0-.062-.035-.112-.069.037-.142.116-.48.116-.48l-.544-.179c-.514-.03-1.286-.322-2.106-.63-1.706-.638-3.637-1.356-5.026-.519-.65.395-1.05 1.175-1.272 2.167-.228-.085-.466-.152-.707-.325 0 0-.25-.158-.425-.272-.045-.206-.098-.42-.098-.42l-.744-.215h-.725l-.084.437c-.201 1.689-.508 2.056-1.746 2.872l-1.148.754s.648.075 1.047.119c-.06.08-.105.165-.105.165-.006.005-.659 1.24-.659 1.24-1.875 3.475-3.653 6.96-3.653 8.915 0 .22.069.385.122.558-.556-.028-1.94-.114-1.94-.114l-.052.466c-.408 3.29-1.312 4.484-2.815 6.455l-1.261 1.695c-.032.056-1.588 3.02-1.588 3.02l-.52.976c-1.215 1.57-2.093 3.446-2.929 5.267-.85 1.81-1.637 3.531-2.796 5.024 0 .008-2.37 2.527-2.37 2.527-.905 1.22-1.685 2.852-2.518 4.58-.98 2.035-1.987 4.135-3.093 5.375a1.366 1.366 0 0 0-.174.122l-1.569 1.199c-2.669 2.526-6.224 6.246-7.443 10.175-.077.013-.455.098-.455.098l-.072.05c-4.396 2.846-8.383 7.462-11.893 11.546l-1.338 1.553c-.01.01-1.815 2.258-1.815 2.258l-.484.617c.045-.052-2.031 1.433-2.031 1.433-.9.55-1.823 1.119-2.69 2.018-.04.044-2.162 2.826-2.162 2.826l-.288.367c-.542.49-1.505.398-2.548.292-.96-.094-1.994-.122-2.83.364.83-6.412 2.354-11.645 5.174-17.714.156-.035.326-.087.452-.255a.613.613 0 0 0 .122-.382c0-.179-.066-.336-.111-.465l-.069-.215a3.25 3.25 0 0 1-.05-.596c0-2.457 2.034-8.128 3.227-10.677l.162-.343s-.146-.099-.307-.181c.063-.093.108-.184.108-.184l.341-.638c.021-.085.363-2.056.363-2.056l.434-2.472c.558-3.04 1.814-8.68 3.835-12.743l.624.049-.063-.615-.026-.33a12.157 12.157 0 0 1-.109-1.61c0-1.893.487-3.807 1.392-5.74l.66.042-.198-.974c-1.084-4.027-4.996-10.341-10.914-10.382-7.338-.036-14.802 18.493-16.14 25.135-.398.08-1.313.26-1.313.26l-.36.07-.042.36c-.188 1.518-.751 2.781-1.346 4.114l-.85 2.049-2.436 6.313-1.378 3.451.548.145s.645.178 1.193.336c-.516-.026-2.061-.114-2.061-.114l-.042.465c-.154 1.217-.656 2.38-1.15 3.51l-.723 1.799c-.026.075-.124.695-.124.695s-.543 3.239-.543 3.249c-.016 0-.992 1.906-.992 1.906l-.518 1.019c-.87 2.24-1.243 4.435-1.643 6.757l-.418 2.397-.367 1.806c-.358 1.77-.71 3.493-.71 5.154 0 1.728.427 3.376 1.567 4.944l-.01.109c-.038-.007-1.905-.53-1.905-.53l-.183 1.325.362.186s.471.202.794.349c-.08.777-.14 1.547-.14 2.289 0 4.146 1.299 7.71 4.01 11.071l.841.972c.82.935 1.47 1.679 1.923 3.02l.103.32 5.447.325s.016-.124.024-.238c.571.222 3.28 1.282 3.28 1.282l.19-.024 2.698-.26c2.228-.13 4.69-.297 5.944-1.3.106.007.265.012.519.028-.019.153-.037.344-.037.344l-.088.933h.506c2.433.142 3.973-1.21 5.457-2.524l1.79-1.462.053-.214c.016-.13.022-.251.022-.372 0-.46-.146-.812-.289-1.147.355-.07.773-.275 1.336-.602l.915-.489-.05-.211-.214-.726c-.098-.109-.233-.15-.357-.202.9-.082 1.68-.284 2.325-.534.844-.318 1.296-.799 1.74-1.271l.984-.886 2.31-1.29c2.05-1.085 4.354-2.324 5.653-4.393.343-.093.955-.481 2.237-2.003l.096-.118s.032-.287.034-.318c.333-.204.572-.499.685-.75l.222-.369h.016c2.857-.772 4.698-3.722 6.476-6.566 1.17-1.894 2.402-3.85 3.814-5.027l.148-.135s.014-.08.019-.134l.402.021.05-.501.08-.597-.289-.292-.27-.13c-.227-.12-.526-.278-.722-.451 1.437-.375 2.727-1.356 3.243-2.586.167-.403.254-.819.254-1.227 0-.447-.14-.892-.346-1.32.177-.02 2.177-.202 2.298-.212.183.341.363.822.514 1.325.423 1.395 1.005 3.165 2.489 4.175-.233-.012-.958-.057-.958-.057s-.042.31-.06.403a12.227 12.227 0 0 0-.397-.015l-.053.457c-.027.201-.04.395-.04.589 0 2.436 1.772 4.631 3.6 5.546l.048.028c-.01.068-.024.14-.037.258-.037.04-.13.032-.17.086a.859.859 0 0 0-.11.419c0 .55.451 1.232 1.044 2.118.595.917 1.394 2.115 1.394 2.916 0 .067-.026.132-.04.194-.13.095-.211.204-.225.266a.57.57 0 0 0-.05.214c0 .517.81 1.385 5.873 5.066l.566.41c0 .007 1.1 1.31 1.1 1.31.368.538.791 1.062 1.35 1.493-.101.259-.287.522-.498.773l-.905 1.14.966.04c.518.039 1.732.884 2.698 1.576 1.002.713 1.963 1.387 2.706 1.646l.592.214s.289-2.49.312-2.645l3.066.186.76-.202.24-.736c.434.23.844.535 1.267.902l2.058 1.56.045-.881s.003-.041.01-.072c.972-.178 1.823-.922 2.257-1.382.307.003 1.38.036 1.38.036 3.987.238 5.39-1.783 7.15-4.335l.697-.986.108-1.077-.532-.007-.386-.029a.7.7 0 0 0-.222-.235c-.296-.179-.614.013-.926.201-.143-.018-.418-.06-.418-.06-.01-.014-.01-.014-.01-.04 0-.194.14-.768 1.008-2.16.174.065 1.716.574 1.716.574l.077-.602c.007-.114.034-.179.077-.194.28-.13 1.113.217 1.75.623.033.183.062.376.186.498.27.256.632.25.979.212.119.367.31.674.515.896v.031c0 .212.038.421.196.584.233.24.519.21.744.189l.69-.024.108-.428.07-.458-.133-.33c-.109-.127-.228-.122-.347-.135-.026-.13-.032-.165-.066-.325l.098-.101.119-.287c.196.008.889.054.889.054v-.015c.317.054.64-.16.88-.336 0 0 .027-.018.048-.038.222-.037 1.913-.28 1.913-.28s-.037-.795-.048-.917c.048.029.077.037.114.117.021.048.029.098.029.136 0 .076-.024.122-.03.14.112-.186.792-.749 4.016-2.407l.257-.148c.13 0 .767.034.767.034l.037-.47.12-1.033-.617.072s-1.902.22-2.193.25c.006-.028.095-.666.095-.666v-.14c0-.3-.124-.5-.24-.622-.297-.307-.757-.372-1.233-.364.01-.016.037-.034.037-.034l.01-.183s.056-.53.109-.889c1.867-.214 3.973-2.11 4.93-3.371.08.01.612.05.612.05l.227-1.845-.418-.014c.032-.15.103-.452.103-.452 0 .003.18-.057.18-.057l.556-.222 1.883-.88c2.365-1.04 3.947-1.77 4.28-2.445.003 0 2.254-5.3 2.254-5.3l-.056-.065c.622-.842 4.211-3.769 5.29-4.014l.353-.078.037-.351c.01-.05.01-.088.01-.132 0-.723-.624-1.617-1.18-2.408 0 0-.19-.305-.338-.53.137-.205.31-.485.576-.921.73-1.178 2.423-3.942 2.937-4.265l.206-.13.185-1.583z" style="fill:#0074b7;stroke:none;stroke-width:2.64522"/><path d="M391.524 0h-84.177v87.184h87.174V0Zm-3.008 6.008v75.18h-75.172V6.008h75.172z" style="fill:#e21c2a;stroke:none;stroke-width:2.64522"/><path d="M84.633 71.8c-2.778-.694-6.473-1.384-8.846-1.686l-.15.111-.998.736s-.016.05-.026.093c-.429-.04-.794.036-1.156.13a1.16 1.16 0 0 1 .026-.078l-.4-.075-1.766-.3c-.429-.072-.9.3-1.344.654l-.267.194-.624-.832-.172.702s-.05.17-.061.222c-.048-.002-.14-.023-.14-.023-.046-.144-.32-.22-1.318.81l-.828-.43-.233.29c-.121.147-.835.405-1.103.5l-.02.014c-.035-.016-.017-.057-.051-.066-.095-.033-.24-.056-.431.182a19.256 19.256 0 0 1-.434-.153l-.32-.041-.135.17s-.786 1.096-.918 1.284c-.026-.008-.082-.015-.082-.015 0-.101.01-.553.01-.553l-1.055-.176-.238.778c-.077-.018-.19-.034-.19-.034s-.032.08-.061.17c-.085-.043-.857-.459-.857-.459l-.085.434c-.03.085-.212.406-1.495.834l-.172.06-.055.173c-.048.175-.307.351-.53.514l-.44.323s-.011.049-.011.08c-1.146-.06-2.257.408-3.325.86l-1.506.586-.07.179c-.295.945-.734 2.314-1.408 2.924a1.9 1.9 0 0 0-.273-.32c.01-.04.14-.46.14-.46l-.404-.057c-.548-.096-.968.728-1.28 1.61 0-.084-.006-.208-.006-.208l-.278-.036s-.042 0-.058-.005c.026-.072.047-.15.047-.15l-.362-.18c-.36-.06-.6.134-.786.4a27.083 27.083 0 0 0-.048-.509l-.267-.085c-.402-.07-1.301.32-3.145 1.16l-1.95.832-.066.17c-.232.734-.82 1.258-1.436 1.808-.495.45-.981.923-1.346 1.514-1.207-.173-2.008.026-2.934 1.217-.071.025-.164.033-.222.085-.153.152-.209.367-.209.643 0 .14.021.31.042.476-.182-.029-.367-.065-.367-.065l.23.61s.029.061.063.126c-.082.113-.222.168-.571.197 0 0-.1.012-.199.033l.25-.553h-.007c0-.018.019-.028.019-.046l-.651-.254s-.034.052-.04.057c-.082.254-.516.59-.867.873l-1.693 1.501 1.314-.297s.14-.025.249-.049c-.032.233-.124.78-.15.961-1.337.744-4.804 4.883-4.852 4.931-.032.055-.418.825-.418.825s-.172.356-.31.637c-.259.037-.693.244-1.658.974-.016-.015-.016 0-.024-.023l-.06-.22-.268-.18c-.595-.106-.733.375-.796.63-.032.086-.386 1.292-.386 1.292-.368 1.325-.471 1.58-2.082 2.407l-.093-1.232-.563 1.119s-1.164 2.084-1.312 2.34c0 .003-1.275-.982-1.275-.982-.318.186-.41.512-.484.938-.01-.006-.357-.062-.357-.062s-.061.194-.072.258l-.164-.03-.113.224-1.066 1.785c-.007.026-.992 2.013-.992 2.013.031-.05-1.146 1.461-1.146 1.461-1.137 1.352-2.272 2.757-2.608 4.573-1.32.398-2.587 5.195-6.563 12.252l-2.365 4.02c-.05.1-.15.953-.15.953a.602.602 0 0 1 .003.072c0 .292-.04.403-.5.646l-.138.077-.037.134c-.418 1.357-.733 2.1-1.627 3.14-.06.129-.119.273-.119.273l-.14.416s.087.034.14.052c-.14.256-.775 1.359-.775 1.359-.037.123-.048.25-.048.366 0 .372.167.687.313.95l.267.562.32.121s.145.031.164.031c-.53 1.132-1.045 2.286-1.045 3.196 0 .266.045.522.15.743.152.316.464.489.813.63-.341.82-.897 2.186-.907 3.204l.23-.072-.159.555.357.168s.722.13.746.132c-.04.271-.22 1.56-.22 1.56s.09.016.16.031a.519.519 0 0 0-.175.413c0 .316.097.775.248 1.413-.113-.07-.264-.144-.264-.144l-.59 2.482-.201.773c-.01.098-.014 3.05-.014 3.05-.047.67-.423 1.382-.801 1.984l-.042.08-.019.365.19.26.093.308.077.343c-.043-.088-.077.044-.077.044l-.19.587.82-.184c.645-.147 1.653 1.4 2.206 2.232 0 0 .227.346.367.545-.01.007-.016.028-.016.031-.042.041-.526.393-.526.393l.048.106v.051c0 .166.119.254.224.357-.006.038-.023.297-.023.297s.071.028.153.054c-.013.101-.13 1.054-.153 1.23v.01l-.022.13.71.046c-.008.018-.054.07-.143.093l-.18-.028.426.772s.066.034.132.062a.555.555 0 0 0-.027.165c0 .132.048.29.172.424.902.953 1.252 1.584 1.252 2.5 0 .675-.196 1.505-.492 2.751 0 0-.064.254-.066.276-.072.087-.154.177-.154.177s-.132.164-.17.23h-.005s-.01.016-.014.029c-.264.33-.883 1.145-.883 1.145l-.05.143-.05.519.317.13c.61.113.873-.527 1.074-1.048.172.087.37.15.433.31l.12.348.153-.113s.304-.122.585-.223c-.022.064-.294.953-.294.953l-.056.185.278.137c.05.05.148.315.148.667 0 .26-.055.571-.227.868a.705.705 0 0 0-.045.277c0 .458.328 1.019.754 1.72l.264.439c-.053-.146-.098-.01-.098-.01l-.113.38L8 182.87l.13-.227s.354-.667.41-.754c.142.034.29.08.29.08s.895.1 1.175.137c0 .053.095.637.095.637l.3-.02 1.896.018.074-.26c.206-.711.418-.872.92-1.195.183 0 .44-.006.44-.006.304-.03.373-.03.473.098l.09.113s.034.003.056.016c0 .003.006.007.006.01 0 .329-.381 1.197-.516 1.5l-.357.815.45.064.515.087s.072-.188.095-.254c.072.021.164.037.164.037l.114-.22.862-1.388.093-.177s.01-.022.016-.05c.087.05.222.113.222.113.032.008.042.008.048.008 0 .04-.016.254-.016.254 0-.008-.296 1.582-.296 1.582l-.252 1.389c0 .092.373 1.09.373 1.09s.437 1.124.474 1.21a.159.159 0 0 1-.016.038l-.14.413.224.087-.153.51.463-.137s.78-.19.849-.201c.42-.042 1.37-.027 1.521.423l.077.196.822.143.223-.283c.11-.355.801-.276 1.007-.238.003.003.363.124.585.206-.021.063-.1.344-.1.344l.399.063c.33.061.534-.132.661-.389.204.323.503.603.974.804-.09-.058.383.357.383.357l.482.416c1.177.473 2.34.214 3.378-.035l1.24-.243c.006.016.558.929.558.929l.228-.786c.19-.645.957-.947 2.333-.918.524.093.984-.632 1.56-1.661 0 0 .112-.183.186-.31.188-.034.756-.148.981-.195l-.047.177.41.06-.463 1.114c-.342.723-.693 1.466-.802 2.434l-.034.336.851.14.096-.299c.193-.592.68-1.222 1.164-1.68.006.014.063.027.063.027l.114.008c-.048-.122.418.796.418.796l.182.416.64.097 1.064-1.711s.053-.15.058-.172c.246-.042 1.063-.188 1.063-.188l1.122-.193 2.283.132c.09-.007 1.087-.389 1.087-.389.566-.285.928-.439 1.182-.25l.408.287s.164-.531.187-.587a4.4 4.4 0 0 0 1.037-.566l-.182.328 1.235.212s.027-.085.061-.175l.357.148.698.326.088-.408.166-.566s-.259-.1-.336-.132a2.294 2.294 0 0 1-.02-.286c.006-.007.006-.007.006-.02.09.041.183.094.183.094l.645.408.103-.46c.125-.387.519-.723 1.07-.91.637-.217 1.28-.172 1.52-.007l.392.286.15-.468c.217-.698 1.577-1.111 2.262-1.23l.288-.045 3.55-.817.58-.064.092-.235.172-.588s-.042-.01-.053-.015c.016-.019.114-.122.148-.164.577-.043 2.86-.268 3.465-.508l.154-.066s.145-.466.19-.59c.302-.061.662-.12.992-.175.68.135 1.839-.817 2.204-1.627h.029c.299.21.516-.121.926-.732 0 0 .082-.109.148-.207 0 .021-.006.056-.006.085l6.552-3.38s.278-.202.384-.273l.404-.003.059-.289c.19-.95.626-1.628 1.293-1.967.63-.31 1.405-.3 2.127.041l.563.261-.076-.594c-.022-.326.116-2.681.277-3.01.28-.322.638-.374 1.082-.439.458-.072.976-.144 1.431-.61.032-.036.424-.61.424-.61l.402-.57c-.056.073 1.047-.416 1.047-.416.556-.16 1.185-.346 1.635-.86.516-.615.7-1.418.878-2.206l.492-1.537c.505-.95 4.518-3.2 5.248-2.942l.408.142.031-.21c.826-.49 3.791-7.937 3.839-8.03.023-.057 1.804.227 1.804.227l.053-.204v-.057c1.785-.305 3.129-1.728 4.399-3.154 1.177-1.312 1.888-4.242 3.27-4.51l.258-.057.027-.264c.006-.077.006-.15.006-.222 0-.501-.146-.84-.418-1.052-.542-.387-1.328-.066-1.966.184l-.515.202-.027.237c-1.256.17-2.468.651-3.439 1.145 0-.029.007-.086.007-.086l-.412.031c-.44.042-.828.372-1.172.67l-.47.35c-.007 0-1.17.473-1.215.496-.037-.035-.016-.085-.056-.105-.288-.13-.502.105-.658.27l-.106.107c-1.82 1.542-6.07 4.779-7.616 4.859l-.29.01-.04.261h-.302l-.164.259c-.15.173-1.132.317-1.777.304l-.223-.008-.13.264c-.3.601-4.575 3.245-5.29 3.11-.537-.006-.64.217-.677.423-.18-.05-.751-.216-.751-.216l-.183.372c-.058.374-.883 1.167-5.697 2.314 0-.007.013-.07.013-.07l-.537-.08-.312.021-.137.266c-.104.178-.884.475-1.22.612l-.762.32s0 .044.003.088c-.256.019-.598.24-1.248.656-.535.344-1.344.863-1.643.892l-.24.02s-.046.122-.054.183c-.209 0-.555.104-1.283.326l-1.457.4s-.087.179-.103.182c-1.405-.104-3.415.526-4.674 1.268-.019-.031-.006-.065-.03-.088-.132-.193-.354-.193-.484-.199l-.119-.007-.386-.072-.227.266c-.074.073-.492.083-.646.083-.006 0-.373.01-.423.018-.003-.007-.47-.695-.47-.695l-.31.545c-.13.215-1.204.49-1.778.643 0 0-1.018.336-1.312.437-.066-.007-.196-.034-.354-.06-.04-.077-.04-.175-.122-.214-.291-.15-.542.096-.873.52-.235-.125-.548-.288-.548-.288-.116-.03-.304-.064-.304-.064l-.317-.057-.111.297c-.053.194-.447.246-.746.29l-.548.097s-.024.068-.037.14l-1.026-.253s-2.41.53-2.423.538c0-.016-1.333-.11-1.333-.11l-1.675-.113c-3.145-.69-6.986-3.769-7.631-7.525a9.614 9.614 0 0 1-.133-1.674c0-.899.093-1.834.199-2.846l.018-.186.072-1.232c.024-.82.055-1.592.304-2.514 0-.003 1.063-2.596 1.063-2.596l.667-1.455c.007-.028.704-2.337.704-2.337.008-.006 1.018-1.964 1.018-1.964.034-.134.15-1.467.15-1.467l.035-.323.249-.994s.082-.318.15-.612c.003.082.019.129.019.253 0 .278-.024.671-.093 1.219l-.05.34.836.138.109-.238s.566-1.152.568-1.165c.007.007 1.064-1.028 1.064-1.028.026-.029 2.068-2.599 2.068-2.599l1.33-2.035c.834-1.354 1.762-2.888 2.66-3.447l.09-.056s.005-.021.01-.023c.08.044.177.1.177.1l.661.388.098-.452c.066-.259.103-.517.103-.773 0-.426-.071-.84-.153-1.214 0 0-.021-.11-.027-.183.196.276.45.553.934.526 1.111-.077 4.566-3.215 5.529-4.512.164.113.386.274.386.274l.497.527.304-.445.672-.87c.46-.46.987-1.057 1.278-1.858.217-.049 1.074-.255 1.505-.356.122.271.32.486.497.63l-.113.37.497.131.41.078.145-.457-.023.008c.248-.158.388-.455.452-.685l.116-.364c.03-.062.749-.695.749-.695s.066-.044.087-.065c.146.06.312.117.312.117l.117.012c.248.065 1.148 1.06 1.328 1.447l.399.831.272-.878c.117-.395.336-.653.678-.785.515-.222 1.224-.104 1.626.111l.21.114.23-.194c.296-.223 2.878-1.002 3.375-1.05l2.119.138c.857.13 1.735.253 2.663.085 1.225-.222 2.39-.935 3.527-1.632l1.878-1.054c.01 0 2.61-.866 2.61-.866l2.651-.873c1.74-.84 3.497-1.733 4.857-2.733.018-.018 2.907-2.485 2.907-2.485-.03.023 1.05-.659 1.05-.659.717-.41 1.455-.845 2.127-1.604.833-.94 1.185-2.15 1.515-3.327l.704-2.049.889-1.441c.69-1.891 1.02-3.73 1.02-5.61 0-1.468-.2-2.961-.61-4.537 0-.013-.45-1.488-.45-1.488-.042-.093-1.378-1.785-1.378-1.785-1.175-1.397-2.304-2.73-2.304-4.725 0-.3.032-.62.087-.958l.064-.416-2.312-.006s-.05.186-.077.28c-.04-.057-.026-.112-.093-.168-.915-.768-.939-1.222-.986-2.119 0 0-.111-1.054-.127-1.219.024-.1.251-.84.251-.84l-.878-.15-.14.29s-.043.134-.067.22c-.145-.024-.579-.101-.579-.101s.294.653.318.695c-.027.01-.014.028-.075.03-.537.019-1.415-.5-1.518-.77l-.074-.185-.717-.127-.098.302c-.068.2-.084.207-.119.22a.774.774 0 0 0-.08-.023l-.303-.054s-.024.062-.027.092c-.402-.666-.711-1.159-.997-1.333-.013-.012-.045-.012-.085-.028-.02-.08-.029-.172-.116-.23-.288-.178-1.013.478-1.016.481-2.444-1.826-3.09-2.787-3.09-2.787z" style="fill:#0074b7;stroke:none;stroke-width:2.64522"/><path d="M894.658 113.698V42.003H830.59v8.45h50.748v63.245h-9.541V75.8h-13.28v37.898h-9.117V75.8h-13.29v37.898h-14.104v8.478h80.825v-8.478zM599.292 89.974c-14.62 0-26.518 9.68-26.518 21.575 0 3.999 1.312 7.897 3.878 11.273 4.838 6.456 13.321 10.302 22.64 10.302 9.317 0 17.803-3.846 22.66-10.302 2.536-3.376 3.87-7.274 3.87-11.273 0-4.004-1.334-7.897-3.87-11.265-4.857-6.456-13.343-10.31-22.66-10.31zm0 34.698c-4.732 0-9.305-2.754-11.67-6.99-1.066-1.92-1.603-3.969-1.603-6.133 0-2.144.545-4.23 1.619-6.143 2.364-4.247 6.927-6.99 11.654-6.99 4.738 0 9.29 2.743 11.682 6.99a12.58 12.58 0 0 1 1.566 6.143c0 7.106-6.06 13.123-13.248 13.123zM594.766 77.525c4.135-4.293 6.365-9.884 6.365-15.763 0-5.876-2.23-11.487-6.365-15.752-4.462-4.681-10.512-7.251-17.07-7.251-12.905 0-23.449 10.32-23.449 23.003 0 5.88 2.283 11.47 6.364 15.763 4.495 4.678 10.57 7.244 17.086 7.244 6.557 0 12.607-2.566 17.07-7.244zm-17.064-1.34c-2.362 0-4.666-1.181-6.449-3.333-2.333-2.751-3.65-6.791-3.65-11.09 0-4.295 1.317-8.343 3.65-11.082 1.783-2.167 4.087-3.345 6.45-3.345 2.35 0 4.65 1.178 6.477 3.345 2.283 2.739 3.627 6.787 3.627 11.082 0 7.954-4.52 14.422-10.105 14.422zM625.144 58.192V39.325h-13.26v49.91h13.26V66.66h12.303v-8.468zM806.58 130.014V95.835h-61.073v8.442h47.78v25.737zM776.782 80.943c4.007-3.989 6.25-9.217 6.25-14.712 0-5.494-2.243-10.718-6.25-14.711-4.402-4.376-10.364-6.763-16.771-6.763-12.69 0-22.995 9.63-22.995 21.474 0 5.495 2.225 10.723 6.235 14.712 4.385 4.37 10.332 6.773 16.76 6.773 6.407 0 12.369-2.402 16.77-6.773zm-16.771-1.051c-2.45 0-4.852-1.12-6.732-3.126-2.413-2.607-3.804-6.386-3.804-10.426 0-4.035 1.391-7.835 3.804-10.42 1.88-2.021 4.282-3.14 6.732-3.14s4.872 1.119 6.732 3.14c2.428 2.585 3.817 6.385 3.817 10.42 0 7.478-4.743 13.552-10.55 13.552z" style="fill:#949597;stroke:none;stroke-width:2.64522"/><path d="M767.119 42.003v-8.419H752.87v8.42h-17.903v8.26h50.13v-8.26zM806.58 58.027V39.325h-13.292V90.33h13.292V66.49h12.271v-8.463zM505.892 92.544c-15.689 0-28.452 9.114-28.452 20.294 0 3.761 1.442 7.42 4.156 10.599 5.216 6.06 14.268 9.687 24.296 9.687 9.957 0 19.046-3.627 24.233-9.687 2.76-3.18 4.148-6.838 4.148-10.6 0-3.766-1.389-7.42-4.148-10.603-5.187-6.063-14.276-9.69-24.233-9.69zm0 32.226c-5.298 0-10.496-2.509-13.101-6.365-1.22-1.726-1.828-3.604-1.828-5.552 0-1.963.613-3.862 1.828-5.603 2.618-3.856 7.803-6.365 13.101-6.365 5.275 0 10.417 2.509 13.073 6.365 1.22 1.741 1.788 3.64 1.788 5.603 0 6.45-6.79 11.917-14.86 11.917zM538.312 40.428v8.457h-22.36c5.478 15.277 25.228 17.576 25.228 17.576v8.298s-23.807-1.116-35.327-18.445C494.33 73.643 470.467 74.76 470.467 74.76V66.46s19.758-2.299 25.207-17.576H473.35v-8.457z" style="fill:#949597;stroke:none;stroke-width:2.64522"/><path d="M512.402 95.721v-8.527h33.835V78.75h-80.854v8.444h33.727v8.527zM694.163 95.324H661.46V50.432h21.287v-8.429H648.17v61.737h45.992z" style="fill:#949597;stroke:none;stroke-width:2.64522"/><path d="M708.48 39.332v26.326h-5.942V39.325H689.99v90.704h12.55v-55.7h5.94v55.7h12.607V39.332ZM487.315 184.748v1.526c-.053.838-.109 1.619-.238 2.362-.598 2.748-2.918 4.322-6.343 4.322-2.254 0-4.156-.738-5.214-2-.564-.629-.942-1.425-1.156-2.322-.156-.743-.204-1.524-.249-2.362v-22.495c.045-.842.093-1.63.249-2.364.592-2.735 2.918-4.27 6.322-4.27 2.259 0 4.18.682 5.23 1.943.563.643.95 1.426 1.16 2.327.13.734.186 1.522.239 2.364v7.112h-5.476v-6.789c0-.586 0-.894-.042-1.217-.053-.622-.476-.994-1.063-.994-.953 0-1.148.413-1.148 2.211v21.844c0 1.79.195 2.227 1.148 2.227.918 0 1.105-.378 1.105-2.227v-7.267h5.476zM497.354 157.468h5.372v14.903h2.211v-14.903h5.373v35.112h-5.373v-15.472h-2.211v15.472h-5.372zM526.343 157.468v28.478c0 1.79.211 2.227 1.1 2.227.95 0 1.161-.378 1.161-2.227v-28.478h5.426v28.806c0 .838-.114 1.619-.268 2.362-.574 2.748-2.849 4.322-6.32 4.322-2.263 0-4.107-.738-5.202-2-.537-.629-.905-1.425-1.111-2.322a10.874 10.874 0 0 1-.267-2.362v-28.806zM544.59 157.468h5.729l3.06 17.847v-17.847h4.95v35.112h-5.696l-3.047-17.8v17.8h-4.997zM576.255 169.622v-5.52c0-.586 0-.894-.05-1.217-.048-.622-.476-.994-1.056-.994-.95 0-1.16.413-1.16 2.211v21.844c0 1.79.21 2.227 1.16 2.227.895 0 1.106-.378 1.106-2.227v-6.896h-1.053v-4.785h6.426v18.315h-2.897l-.368-1.368c-.743 1.223-1.838 1.746-3.581 1.746-1.9 0-3.844-.799-4.852-2-.57-.579-.939-1.425-1.156-2.322-.16-.743-.211-1.524-.264-2.362v-22.495c.053-.842.103-1.63.264-2.364.585-2.68 2.902-4.27 6.267-4.27 2.211 0 4.103.682 5.156 1.943.584.643.952 1.426 1.163 2.327.212 1.155.268 1.37.268 3.89v4.317zM592.793 174.648h5.27v4.426h-5.27zM614.23 179.96l1-12.804 1.272 12.804zm-6.264 12.62h5.317l.63-7.996h3.06l.783 7.996h5.375l-4.211-35.112h-7.322zM631.138 157.468h5.74l3.053 17.847v-17.847h4.95v35.112h-5.688l-3.053-17.8v17.8h-5.002zM662.54 169.622v-5.52c0-.586 0-.894-.056-1.217-.053-.622-.481-.994-1.055-.994-.945 0-1.156.413-1.156 2.211v21.844c0 1.79.211 2.227 1.156 2.227.894 0 1.11-.378 1.11-2.227v-6.896h-1.052v-4.785h6.423v18.315h-2.894l-.373-1.368c-.738 1.223-1.839 1.746-3.577 1.746-1.894 0-3.843-.799-4.843-2-.58-.579-.952-1.425-1.164-2.322-.159-.743-.212-1.524-.27-2.362v-22.495c.058-.842.111-1.63.27-2.364.585-2.68 2.9-4.27 6.267-4.27 2.211 0 4.108.682 5.166 1.943.574.643.941 1.426 1.153 2.327.212 1.155.265 1.37.265 3.89v4.317zM701.615 157.365v28.57c0 1.796.217 2.238 1.124 2.238.931 0 1.143-.394 1.143-2.238v-28.57h5.46v28.901c0 .854-.1 1.621-.262 2.378-.585 2.759-2.868 4.33-6.34 4.33-2.273 0-4.149-.746-5.244-2.008-.537-.634-.904-1.42-1.116-2.322a12.771 12.771 0 0 1-.238-2.378v-28.901zM719.933 157.365h5.745l3.072 17.926v-17.926h4.962v35.23h-5.708l-3.074-17.857v17.858h-4.997zM744.314 157.365h5.367v35.23h-5.367zM758.18 157.365h5.349l2.113 22.447 1.794-22.447h5.346l-3.923 35.23h-6.55zM781.276 157.365h10.186v4.812h-4.809v10.145h4.81v4.757h-4.81v10.7h4.81v4.817h-10.187zM806.493 162.177c1.809 0 2.174.37 2.174 2.01v6.665c0 1.62-.365 1.994-2.174 1.994zm-5.373 30.419h5.373v-15.049c1.809 0 2.174.328 2.174 1.952v9.793c0 1.674.15 2.423.574 3.304h5.285c-.418-1.098-.473-1.677-.473-3.362v-8.827c0-2.217-.426-3.545-1.479-4.267-.418-.328-.635-.434-1.436-.757 1.642-.817 2.222-1.417 2.536-2.746.217-.94.379-2.534.379-3.691v-4.113c0-3.405-.426-4.973-1.479-6.016-1.174-1.073-2.32-1.452-5.074-1.452h-6.38zM828.906 179.653v6.282c0 .603 0 .963.05 1.24.063.604.423.998 1.055.998.955 0 1.167-.442 1.167-2.238v-4.222c0-2.102-.212-2.647-1.746-3.885l-2.851-2.598c-2.482-2.177-3.064-3.368-3.064-6.45v-5.078c.056-.817.104-1.633.267-2.372.575-2.67 2.91-4.27 6.174-4.27 2.12 0 4.016.731 5.063 1.963a4.853 4.853 0 0 1 1.122 2.307c.26 1.163.26 1.382.26 3.927v4.272h-5.225v-5.51c0-1.785-.212-2.216-1.167-2.216-.894 0-1.105.431-1.105 2.216v3.61c0 1.9.211 2.27 1.843 3.742l2.868 2.534c2.37 2.063 2.899 3.391 2.899 6.721v5.64c0 .854-.114 1.621-.265 2.378-.526 2.703-2.851 4.33-6.24 4.33-2.113 0-4.01-.746-5.057-2.008-.595-.576-.963-1.42-1.17-2.322-.164-.757-.211-1.524-.267-2.378V179.653zM846.573 157.365h5.386v35.23h-5.386zM864.513 162.177h-3.7v-4.812h12.781v4.812h-3.801v30.419h-5.28zM886.76 157.365l2.118 11.043 2.008-11.043h5.38l-4.584 22.134v13.097h-5.507v-13.258l-4.965-21.973z" style="fill:#949597;stroke:none;stroke-width:2.64522"/></svg>